<svg width="42" height="42" viewBox="0 0 42 42" fill="none" xmlns="http://www.w3.org/2000/svg">
<g clip-path="url(#clip0_107_450)">
<path d="M12.3027 0.146869C10.0683 0.252289 8.54241 0.608869 7.20849 1.13303C5.82795 1.67105 4.65783 2.39303 3.49359 3.56147C2.32935 4.72991 1.61241 5.90087 1.07817 7.28351C0.561154 8.62037 0.210874 10.1475 0.112174 12.3831C0.0134741 14.6188 -0.00836595 15.3374 0.00255405 21.0402C0.0134741 26.7429 0.0386741 27.4578 0.147034 29.6981C0.253714 31.932 0.609034 33.4575 1.13319 34.7918C1.67205 36.1724 2.39319 37.3421 3.56205 38.5067C4.73091 39.6714 5.90103 40.3867 7.28703 40.9217C8.62263 41.4379 10.1502 41.7899 12.3854 41.8877C14.6207 41.9856 15.3401 42.0083 21.0412 41.9973C26.7423 41.9864 27.4601 41.9612 29.6999 41.855C31.9398 41.7487 33.4572 41.3909 34.792 40.8692C36.1725 40.3291 37.3431 39.6092 38.5069 38.4399C39.6707 37.2707 40.3872 36.0989 40.9211 34.7154C41.4385 33.3798 41.79 31.8522 41.8871 29.6187C41.9849 27.3771 42.008 26.6615 41.9971 20.9595C41.9862 15.2576 41.9606 14.5428 41.8543 12.3033C41.748 10.0639 41.3923 8.54309 40.8686 7.20791C40.3289 5.82737 39.6086 4.65851 38.4401 3.49301C37.2717 2.32751 36.099 1.61141 34.716 1.07885C33.3795 0.561829 31.8528 0.209449 29.6176 0.112849C27.3824 0.016249 26.6629 -0.00853102 20.9597 0.00238898C15.2565 0.013309 14.5425 0.037669 12.3027 0.146869ZM12.548 38.1098C10.5005 38.0208 9.38871 37.6806 8.64783 37.3958C7.66671 37.0178 6.96783 36.5609 6.22947 35.8297C5.49111 35.0984 5.03751 34.397 4.65447 33.418C4.36677 32.6771 4.02027 31.5667 3.92451 29.5191C3.82035 27.3062 3.79851 26.6417 3.78633 21.0351C3.77415 15.4286 3.79557 14.765 3.89259 12.5511C3.97995 10.5053 4.32225 9.39233 4.60659 8.65187C4.98459 7.66949 5.43987 6.97187 6.17277 6.23393C6.90567 5.49599 7.60497 5.04155 8.58483 4.65851C9.32487 4.36955 10.4354 4.02599 12.482 3.92855C14.6967 3.82355 15.3603 3.80255 20.966 3.79037C26.5718 3.77819 27.237 3.79919 29.4525 3.89663C31.4984 3.98567 32.6118 4.32461 33.3514 4.61063C34.3329 4.98863 35.0314 5.44265 35.7693 6.17681C36.5073 6.91097 36.9621 7.60775 37.3452 8.58971C37.6346 9.32765 37.9781 10.4377 38.0747 12.4856C38.1801 14.7003 38.2041 15.3643 38.2142 20.9696C38.2242 26.5749 38.2045 27.2407 38.1075 29.4536C38.018 31.5011 37.6787 32.6133 37.3935 33.355C37.0155 34.3357 36.5598 35.035 35.8265 35.7725C35.0931 36.51 34.3947 36.9645 33.4144 37.3475C32.6752 37.6361 31.5635 37.9805 29.5185 38.0779C27.3038 38.1821 26.6402 38.2039 21.0324 38.2161C15.4245 38.2283 14.763 38.2056 12.5484 38.1098M29.6676 9.77621C29.6684 10.2747 29.817 10.7617 30.0947 11.1756C30.3723 11.5896 30.7665 11.9119 31.2273 12.1019C31.6881 12.2918 32.1949 12.3408 32.6836 12.2427C33.1723 12.1446 33.6209 11.9037 33.9727 11.5506C34.3245 11.1975 34.5637 10.748 34.6601 10.259C34.7564 9.76995 34.7055 9.26332 34.5139 8.80318C34.3223 8.34305 33.9985 7.95007 33.5835 7.67396C33.1685 7.39786 32.681 7.25101 32.1825 7.25201C31.5143 7.25334 30.874 7.52001 30.4024 7.99337C29.9308 8.46672 29.6665 9.10801 29.6676 9.77621ZM10.2174 21.0209C10.2291 26.9765 15.0659 31.7934 21.0202 31.7821C26.9745 31.7708 31.7949 26.9345 31.7835 20.9789C31.7722 15.0233 26.9342 10.205 20.979 10.2168C15.0239 10.2285 10.206 15.0661 10.2174 21.0209ZM13.9999 21.0133C13.9972 19.6288 14.405 18.2746 15.1719 17.1219C15.9388 15.9692 17.0303 15.0698 18.3084 14.5375C19.5864 14.0051 20.9937 13.8637 22.3521 14.1311C23.7105 14.3986 24.9591 15.0628 25.9401 16.0398C26.921 17.0169 27.5901 18.2629 27.8629 19.6202C28.1357 20.9776 27.9999 22.3853 27.4726 23.6655C26.9453 24.9456 26.0503 26.0407 24.9006 26.8121C23.751 27.5836 22.3984 27.9968 21.0139 27.9996C20.0946 28.0015 19.1839 27.8223 18.3339 27.4723C17.4838 27.1222 16.7111 26.6081 16.0597 25.9593C15.4084 25.3106 14.8913 24.5399 14.5378 23.6912C14.1844 22.8426 14.0016 21.9326 13.9999 21.0133Z" fill="white"/>
</g>
<defs>
<clipPath id="clip0_107_450">
<rect width="42" height="42" fill="white"/>
</clipPath>
</defs>
</svg>
