<svg width="48" height="41" viewBox="0 0 48 41" fill="none" xmlns="http://www.w3.org/2000/svg">
<g clip-path="url(#clip0_107_446)">
<path d="M45.6224 38.3848C45.7254 38.3858 45.8275 38.3658 45.9224 38.3262C46.0173 38.2865 46.1029 38.228 46.174 38.1542C46.2451 38.0804 46.3001 37.993 46.3356 37.8973C46.3711 37.8016 46.3863 37.6998 46.3804 37.598C46.3804 37.04 46.0402 36.7734 45.3424 36.7734H44.2148V39.6947H44.6389V38.4213H45.1601L45.172 38.4368L45.9807 39.6947H46.4343L45.5641 38.3928L45.6224 38.3848ZM45.1319 38.0921H44.6402V37.1045H45.2635C45.5855 37.1045 45.9525 37.1566 45.9525 37.5738C45.9525 38.0537 45.5811 38.0921 45.1294 38.0921" fill="white"/>
<path d="M34.5657 34.7249H28.5548V25.4044C28.5548 23.1818 28.5148 20.3206 25.4286 20.3206C22.2979 20.3206 21.8189 22.7422 21.8189 25.2425V34.7243H15.808V15.5574H21.5784V18.1768H21.6592C22.2367 17.1991 23.0712 16.3948 24.0738 15.8496C25.0764 15.3044 26.2096 15.0386 27.3527 15.0807C33.445 15.0807 34.5682 19.0484 34.5682 24.2103L34.5657 34.7249ZM9.02571 12.9374C8.33581 12.9375 7.66136 12.7351 7.08766 12.3557C6.51396 11.9763 6.0668 11.4369 5.80267 10.8059C5.53855 10.1748 5.46933 9.48039 5.6038 8.81038C5.73827 8.14038 6.07039 7.52491 6.55813 7.04179C7.04588 6.55868 7.66736 6.22962 8.34398 6.09623C9.02059 5.96285 9.72195 6.03112 10.3594 6.29242C10.9968 6.55372 11.5417 6.99631 11.9251 7.56422C12.3085 8.13213 12.5132 8.79986 12.5133 9.48297C12.5134 9.93653 12.4232 10.3857 12.248 10.8047C12.0728 11.2238 11.8159 11.6046 11.4921 11.9254C11.1682 12.2462 10.7837 12.5006 10.3605 12.6743C9.93735 12.8479 9.48379 12.9373 9.02571 12.9374ZM12.0312 34.7249H6.01401V15.5574H12.0312V34.7249ZM37.5624 0.502737H2.99355C2.20894 0.493969 1.45287 0.793994 0.891546 1.33688C0.330226 1.87977 0.0095758 2.6211 0 3.39798V37.7684C0.00924806 38.5456 0.32971 39.2875 0.891011 39.8309C1.45231 40.3744 2.20855 40.675 2.99355 40.6667H37.5624C38.349 40.6765 39.1073 40.3767 39.6708 39.8333C40.2344 39.2899 40.557 38.5472 40.5678 37.7684V3.39551C40.5566 2.61708 40.2338 1.87491 39.6703 1.33203C39.1067 0.789157 38.3486 0.489989 37.5624 0.500256" fill="white"/>
<path d="M45.183 35.4727C44.4517 35.4796 43.7529 35.7731 43.2395 36.2888C42.7261 36.8045 42.4399 37.5006 42.4434 38.2247C42.4469 38.9489 42.7399 39.6422 43.2583 40.153C43.7767 40.6638 44.4783 40.9506 45.2096 40.9506C45.941 40.9506 46.6426 40.6638 47.161 40.153C47.6793 39.6422 47.9724 38.9489 47.9759 38.2247C47.9794 37.5006 47.6932 36.8045 47.1798 36.2888C46.6664 35.7731 45.9676 35.4796 45.2362 35.4727H45.183ZM45.183 40.637C44.7034 40.6449 44.2321 40.5118 43.8288 40.2545C43.4255 39.9972 43.1084 39.6273 42.9174 39.1915C42.7265 38.7557 42.6703 38.2736 42.7561 37.8063C42.8418 37.3389 43.0656 36.9072 43.3992 36.5658C43.7327 36.2243 44.161 35.9885 44.6299 35.8881C45.0988 35.7877 45.5873 35.8272 46.0335 36.0016C46.4797 36.1761 46.8637 36.4776 47.1368 36.8682C47.4099 37.2587 47.56 37.7206 47.568 38.1956C47.568 38.2092 47.568 38.2222 47.568 38.2359C47.5814 38.8589 47.3443 39.4618 46.909 39.9118C46.4736 40.3618 45.8755 40.6222 45.2462 40.6357H45.1836" fill="white"/>
</g>
<defs>
<clipPath id="clip0_107_446">
<rect width="47.9769" height="40.5" fill="white" transform="translate(0 0.5)"/>
</clipPath>
</defs>
</svg>
