<svg width="28" height="28" viewBox="0 0 28 28" fill="none" xmlns="http://www.w3.org/2000/svg">
<mask id="mask0_257_379" style="mask-type:alpha" maskUnits="userSpaceOnUse" x="0" y="0" width="28" height="28">
<rect width="28" height="28" fill="#D9D9D9"/>
</mask>
<g mask="url(#mask0_257_379)">
<path d="M13.125 20.1294L9.62733 23.569C9.46575 23.7304 9.26567 23.8111 9.02708 23.8111C8.7885 23.8111 8.58842 23.7207 8.42683 23.5398C8.246 23.3783 8.15558 23.1782 8.15558 22.9396C8.15558 22.701 8.246 22.4912 8.42683 22.3102L13.125 17.6123V14.875H10.3877L5.66067 19.6023C5.49908 19.7637 5.299 19.8444 5.06042 19.8444C4.82183 19.8444 4.61203 19.754 4.431 19.5732C4.26961 19.4116 4.18892 19.2115 4.18892 18.9729C4.18892 18.7343 4.26961 18.5343 4.431 18.3727L7.87063 14.875H3.47083C3.23011 14.875 3.02896 14.7912 2.86737 14.6236C2.70579 14.4562 2.625 14.2483 2.625 14C2.625 13.7593 2.70881 13.5533 2.87642 13.382C3.04383 13.2107 3.25169 13.125 3.5 13.125H7.87063L4.431 9.6565C4.26961 9.49492 4.18892 9.29483 4.18892 9.05625C4.18892 8.81767 4.27933 8.60786 4.46017 8.42683C4.62175 8.26544 4.82183 8.18475 5.06042 8.18475C5.299 8.18475 5.50881 8.26544 5.68983 8.42683L10.3877 13.125H13.125V10.3877L8.39767 5.68983C8.23628 5.52825 8.15558 5.32817 8.15558 5.08958C8.15558 4.851 8.246 4.64119 8.42683 4.46017C8.58842 4.29878 8.7885 4.21808 9.02708 4.21808C9.26567 4.21808 9.46575 4.29878 9.62733 4.46017L13.125 7.87062V3.5C13.125 3.25928 13.2088 3.05326 13.3764 2.88196C13.5438 2.71065 13.7517 2.625 14 2.625C14.2407 2.625 14.4467 2.71065 14.618 2.88196C14.7893 3.05326 14.875 3.25928 14.875 3.5V7.87062L18.3435 4.46017C18.5051 4.29878 18.7052 4.21808 18.9438 4.21808C19.1823 4.21808 19.3921 4.29878 19.5732 4.46017C19.7346 4.64119 19.8152 4.851 19.8152 5.08958C19.8152 5.32817 19.7346 5.52825 19.5732 5.68983L14.875 10.3877V13.125H17.6123L22.3102 8.42683C22.4717 8.26544 22.6718 8.18475 22.9104 8.18475C23.149 8.18475 23.3588 8.27517 23.5398 8.456C23.7012 8.61758 23.7819 8.81767 23.7819 9.05625C23.7819 9.29483 23.7012 9.49492 23.5398 9.6565L20.1294 13.125H24.5C24.7407 13.125 24.9467 13.2107 25.118 13.382C25.2893 13.5533 25.375 13.7593 25.375 14C25.375 14.2483 25.2893 14.4562 25.118 14.6236C24.9467 14.7912 24.7407 14.875 24.5 14.875H20.1294L23.5398 18.3727C23.7012 18.5343 23.7819 18.7343 23.7819 18.9729C23.7819 19.2115 23.7012 19.4116 23.5398 19.5732C23.3588 19.754 23.149 19.8444 22.9104 19.8444C22.6718 19.8444 22.4717 19.754 22.3102 19.5732L17.6123 14.875H14.875V17.6123L19.5732 22.3393C19.7346 22.5009 19.8152 22.701 19.8152 22.9396C19.8152 23.1782 19.7248 23.388 19.544 23.569C19.3824 23.7304 19.1823 23.8111 18.9438 23.8111C18.7052 23.8111 18.5051 23.7304 18.3435 23.569L14.875 20.1294V24.5292C14.875 24.7699 14.7893 24.971 14.618 25.1326C14.4467 25.2942 14.2407 25.375 14 25.375C13.7517 25.375 13.5438 25.2912 13.3764 25.1236C13.2088 24.9562 13.125 24.7483 13.125 24.5V20.1294Z" fill="#272F9B"/>
</g>
</svg>
