<svg width="28" height="28" viewBox="0 0 28 28" fill="none" xmlns="http://www.w3.org/2000/svg">
<mask id="mask0_257_386" style="mask-type:alpha" maskUnits="userSpaceOnUse" x="0" y="0" width="28" height="28">
<rect width="28" height="28" fill="#D9D9D9"/>
</mask>
<g mask="url(#mask0_257_386)">
<path d="M14 24.4326C13.5318 24.4326 13.1178 24.3093 12.7581 24.0625C12.3984 23.8156 12.1467 23.4917 12.0033 23.091H11.6667C11.1895 23.091 10.7785 22.9186 10.4338 22.5739C10.089 22.2291 9.91667 21.8181 9.91667 21.341V17.5134C8.7395 16.8 7.81326 15.8435 7.13796 14.644C6.46265 13.4443 6.125 12.1602 6.125 10.7917C6.125 8.59602 6.88858 6.7346 8.41575 5.20744C9.94292 3.68027 11.8043 2.91669 14 2.91669C16.1957 2.91669 18.0571 3.68027 19.5843 5.20744C21.1114 6.7346 21.875 8.59602 21.875 10.7917C21.875 12.1841 21.5373 13.4741 20.862 14.6618C20.1867 15.8495 19.2605 16.8 18.0833 17.5134V21.341C18.0833 21.8181 17.911 22.2291 17.5662 22.5739C17.2215 22.9186 16.8105 23.091 16.3333 23.091H15.9968C15.8533 23.4917 15.6016 23.8156 15.2419 24.0625C14.8822 24.3093 14.4682 24.4326 14 24.4326ZM11.6667 21.341H16.3333V20.2461H11.6667V21.341ZM11.6667 19.2141H16.3333V18.0834H11.6667V19.2141ZM11.4333 16.3334H13.3044V12.9366L11.2942 10.9261C11.1565 10.7887 11.0859 10.6276 11.0822 10.4429C11.0785 10.2581 11.1492 10.0932 11.2942 9.94819C11.4393 9.80313 11.6023 9.7306 11.7833 9.7306C11.9644 9.7306 12.1274 9.80313 12.2725 9.94819L14 11.6757L15.7275 9.94819C15.8652 9.81052 16.0264 9.73984 16.2111 9.73615C16.3958 9.73245 16.5607 9.80313 16.7058 9.94819C16.8508 10.0932 16.9234 10.2563 16.9234 10.4373C16.9234 10.6181 16.8508 10.7811 16.7058 10.9261L14.6956 12.9366V16.3334H16.5667C17.6167 15.8278 18.4722 15.084 19.1333 14.1021C19.7944 13.1202 20.125 12.0167 20.125 10.7917C20.125 9.08058 19.5319 7.63197 18.3458 6.44585C17.1597 5.25974 15.7111 4.66669 14 4.66669C12.2889 4.66669 10.8403 5.25974 9.65417 6.44585C8.46806 7.63197 7.875 9.08058 7.875 10.7917C7.875 12.0167 8.20556 13.1202 8.86667 14.1021C9.52778 15.084 10.3833 15.8278 11.4333 16.3334Z" fill="#272F9B"/>
</g>
</svg>
