<svg width="28" height="28" viewBox="0 0 28 28" fill="none" xmlns="http://www.w3.org/2000/svg">
<mask id="mask0_257_372" style="mask-type:alpha" maskUnits="userSpaceOnUse" x="0" y="0" width="28" height="28">
<rect width="28" height="28" fill="#D9D9D9"/>
</mask>
<g mask="url(#mask0_257_372)">
<path d="M14.0111 21C15.9555 21 17.5986 20.3176 18.9402 18.9528C20.2819 17.588 20.9685 15.9334 21 13.9889V7.35904C21 7.25424 20.9664 7.1682 20.8991 7.10092C20.8318 7.03364 20.7458 7 20.641 7H14.0111C12.0666 7.0315 10.412 7.71808 9.04721 9.05975C7.6824 10.4014 7 12.0445 7 13.9889C7 15.9334 7.68162 17.588 9.04487 18.9528C10.4081 20.3176 12.0635 21 14.0111 21ZM12.7476 18.629L17.6698 14.2325C17.8304 14.0895 17.8755 13.9205 17.8051 13.7252C17.7349 13.53 17.5905 13.413 17.372 13.3741L13.5199 13.0107L15.8375 9.82013C15.8882 9.73787 15.9148 9.65485 15.9171 9.57104C15.9195 9.48743 15.8891 9.41043 15.8261 9.34004C15.7483 9.2504 15.6561 9.21006 15.5493 9.219C15.4426 9.22775 15.3447 9.26781 15.2556 9.33917L10.3702 13.7276C10.21 13.8703 10.1631 14.0411 10.2296 14.24C10.2961 14.439 10.4387 14.5579 10.6572 14.5968L14.5092 14.9602L12.185 18.1507C12.134 18.233 12.1105 18.316 12.1144 18.3998C12.1181 18.4834 12.1532 18.5604 12.2197 18.6308C12.2864 18.701 12.3687 18.7361 12.4667 18.7361C12.5647 18.7361 12.6583 18.7004 12.7476 18.629ZM14.0111 22.75C12.9519 22.75 11.9542 22.5761 11.018 22.2282C10.0819 21.8805 9.23397 21.3956 8.47408 20.7734L6.75762 22.4898C6.67032 22.5766 6.57203 22.6416 6.46275 22.685C6.35347 22.7283 6.2406 22.75 6.12413 22.75C5.8764 22.75 5.66883 22.666 5.50142 22.498C5.33381 22.3298 5.25 22.1216 5.25 21.8732C5.25 21.7562 5.27168 21.6435 5.31504 21.5352C5.3584 21.4267 5.42344 21.3291 5.51017 21.2424L7.22663 19.5259C6.6044 18.766 6.11946 17.9181 5.77179 16.982C5.42393 16.0457 5.25 15.0481 5.25 13.9889C5.25 11.5492 6.09992 9.48286 7.79975 7.78983C9.49978 6.09661 11.5702 5.25 14.0111 5.25H20.641C21.221 5.25 21.7175 5.4565 22.1305 5.8695C22.5435 6.2825 22.75 6.77901 22.75 7.35904V13.9889C22.75 16.4298 21.9034 18.5002 20.2102 20.2002C18.5171 21.9001 16.4508 22.75 14.0111 22.75Z" fill="#272F9B"/>
</g>
</svg>
