<svg width="28" height="28" viewBox="0 0 28 28" fill="none" xmlns="http://www.w3.org/2000/svg">
<mask id="mask0_107_191" style="mask-type:alpha" maskUnits="userSpaceOnUse" x="0" y="0" width="28" height="28">
<rect width="28" height="28" fill="#D9D9D9"/>
</mask>
<g mask="url(#mask0_107_191)">
<path d="M12.3086 21.233L18.3461 13.9997H13.6794L14.5253 7.37883L9.12944 15.1663H13.1836L12.3086 21.233ZM11.1734 16.9163H7.62415C7.23215 16.9163 6.94495 16.7428 6.76256 16.3957C6.57998 16.0488 6.60244 15.7146 6.82994 15.393L14.4736 4.36591C14.6308 4.14599 14.8312 3.99559 15.0751 3.9147C15.3187 3.83401 15.5722 3.84081 15.8354 3.93512C16.0987 4.02923 16.2913 4.19033 16.4132 4.41841C16.5351 4.64649 16.5804 4.89217 16.5489 5.15545L15.6718 12.2497H20.0244C20.4401 12.2497 20.7332 12.4359 20.9037 12.8085C21.0743 13.1809 21.0242 13.5278 20.7535 13.8495L12.3019 23.9723C12.1329 24.1728 11.9265 24.3026 11.6827 24.3617C11.4389 24.4206 11.201 24.397 10.9693 24.2908C10.7375 24.1847 10.5576 24.0224 10.4297 23.804C10.3017 23.5857 10.2535 23.3449 10.285 23.0816L11.1734 16.9163Z" fill="#272F9B"/>
</g>
</svg>
