<svg width="28" height="28" viewBox="0 0 28 28" fill="none" xmlns="http://www.w3.org/2000/svg">
<mask id="mask0_107_210" style="mask-type:alpha" maskUnits="userSpaceOnUse" x="0" y="0" width="28" height="28">
<rect width="28" height="28" fill="#D9D9D9"/>
</mask>
<g mask="url(#mask0_107_210)">
<path d="M15.6625 24.15L8.4875 16.6833C8.39028 16.5861 8.3125 16.4646 8.25417 16.3187C8.19583 16.1729 8.16667 16.0222 8.16667 15.8667V15.1667C8.16667 14.8361 8.27847 14.559 8.50208 14.3354C8.72569 14.1118 9.00278 14 9.33333 14H12.25C13.2806 14 14.1701 13.6646 14.9187 12.9937C15.6674 12.3229 16.1194 11.4917 16.275 10.5H8.16667C7.83611 10.5 7.55903 10.3882 7.33542 10.1646C7.11181 9.94097 7 9.66389 7 9.33333C7 9.00278 7.11181 8.72569 7.33542 8.50208C7.55903 8.27847 7.83611 8.16667 8.16667 8.16667H15.925C15.5944 7.48611 15.1035 6.92708 14.4521 6.48958C13.8007 6.05208 13.0667 5.83333 12.25 5.83333H8.16667C7.83611 5.83333 7.55903 5.72153 7.33542 5.49792C7.11181 5.27431 7 4.99722 7 4.66667C7 4.33611 7.11181 4.05903 7.33542 3.83542C7.55903 3.61181 7.83611 3.5 8.16667 3.5H19.8333C20.1639 3.5 20.441 3.61181 20.6646 3.83542C20.8882 4.05903 21 4.33611 21 4.66667C21 4.99722 20.8882 5.27431 20.6646 5.49792C20.441 5.72153 20.1639 5.83333 19.8333 5.83333H17.2083C17.4806 6.16389 17.7236 6.52361 17.9375 6.9125C18.1514 7.30139 18.3167 7.71944 18.4333 8.16667H19.8333C20.1639 8.16667 20.441 8.27847 20.6646 8.50208C20.8882 8.72569 21 9.00278 21 9.33333C21 9.66389 20.8882 9.94097 20.6646 10.1646C20.441 10.3882 20.1639 10.5 19.8333 10.5H18.6375C18.4819 12.1528 17.8014 13.5382 16.5958 14.6562C15.3903 15.7743 13.9417 16.3333 12.25 16.3333H11.4042L17.3542 22.5167C17.7042 22.8861 17.7771 23.309 17.5729 23.7854C17.3687 24.2618 17.0139 24.5 16.5083 24.5C16.3528 24.5 16.2021 24.4708 16.0562 24.4125C15.9104 24.3542 15.7792 24.2667 15.6625 24.15Z" fill="#272F9B"/>
</g>
</svg>
