<svg width="28" height="28" viewBox="0 0 28 28" fill="none" xmlns="http://www.w3.org/2000/svg">
<mask id="mask0_107_329" style="mask-type:alpha" maskUnits="userSpaceOnUse" x="0" y="0" width="28" height="28">
<rect width="28" height="28" fill="#D9D9D9"/>
</mask>
<g mask="url(#mask0_107_329)">
<path d="M13.4167 22.9063C12.8394 22.9063 12.3058 22.762 11.816 22.4734C11.326 22.1847 10.9307 21.7868 10.6301 21.2797C10.4685 20.9956 10.4674 20.7095 10.6269 20.4216C10.7861 20.1338 11.0272 19.9899 11.3502 19.9899C11.5357 19.9899 11.7014 20.0452 11.8472 20.1559C11.993 20.2665 12.1213 20.3966 12.2319 20.5461C12.3591 20.7345 12.5296 20.8834 12.7435 20.9927C12.9574 21.1019 13.1818 21.1566 13.4167 21.1566C13.8221 21.1566 14.1664 21.0148 14.4498 20.7313C14.7333 20.4478 14.875 20.1034 14.875 19.6979C14.875 19.2927 14.7333 18.9484 14.4498 18.6649C14.1664 18.3814 13.8221 18.2396 13.4167 18.2396H3.5C3.25169 18.2396 3.04383 18.1559 2.87642 17.9885C2.70881 17.8209 2.625 17.6129 2.625 17.3646C2.625 17.1165 2.70881 16.9086 2.87642 16.741C3.04383 16.5736 3.25169 16.4899 3.5 16.4899H13.4167C14.3066 16.4899 15.0638 16.8021 15.6882 17.4264C16.3127 18.051 16.625 18.8082 16.625 19.6979C16.625 20.5879 16.3127 21.3452 15.6882 21.9697C15.0638 22.5941 14.3066 22.9063 13.4167 22.9063ZM3.5 11.5088C3.25169 11.5088 3.04383 11.4251 2.87642 11.2577C2.70881 11.0901 2.625 10.8822 2.625 10.6341C2.625 10.3858 2.70881 10.1778 2.87642 10.0102C3.04383 9.84282 3.25169 9.75911 3.5 9.75911H18.0833C18.6443 9.75911 19.1248 9.55903 19.5247 9.15886C19.9249 8.7587 20.125 8.27823 20.125 7.71745C20.125 7.15648 19.9249 6.67591 19.5247 6.27574C19.1248 5.87557 18.6443 5.67549 18.0833 5.67549C17.6974 5.67549 17.3403 5.77281 17.012 5.96745C16.6836 6.16189 16.4342 6.43256 16.2636 6.77945C16.165 6.95289 16.0447 7.10398 15.9025 7.2327C15.7604 7.36123 15.5907 7.42549 15.3933 7.42549C15.0942 7.42549 14.8512 7.31339 14.6641 7.0892C14.4771 6.86481 14.4307 6.62098 14.525 6.3577C14.7972 5.61589 15.2582 5.02507 15.9081 4.58524C16.5581 4.1456 17.2832 3.92578 18.0833 3.92578C19.1362 3.92578 20.0315 4.29445 20.769 5.03178C21.5063 5.76911 21.875 6.66434 21.875 7.71745C21.875 8.77036 21.5063 9.66549 20.769 10.4028C20.0315 11.1402 19.1362 11.5088 18.0833 11.5088H3.5ZM23.1403 20.4026C22.8412 20.5327 22.5556 20.5102 22.2833 20.3352C22.0111 20.1602 21.875 19.9113 21.875 19.5883C21.875 19.3907 21.9394 19.2239 22.0681 19.0878C22.1966 18.9517 22.3476 18.8343 22.521 18.7357C22.8681 18.5652 23.1389 18.3157 23.3333 17.9873C23.5278 17.6591 23.625 17.302 23.625 16.916C23.625 16.3551 23.4249 15.8746 23.0247 15.4746C22.6248 15.0744 22.1443 14.8744 21.5833 14.8744H3.5C3.25169 14.8744 3.04383 14.7906 2.87642 14.6229C2.70881 14.4555 2.625 14.2477 2.625 13.9994C2.625 13.7511 2.70881 13.5432 2.87642 13.3758C3.04383 13.2082 3.25169 13.1244 3.5 13.1244H21.5833C22.6362 13.1244 23.5315 13.493 24.269 14.2304C25.0063 14.9679 25.375 15.8631 25.375 16.916C25.375 17.6804 25.1761 18.3755 24.7782 19.0014C24.3804 19.6274 23.8344 20.0944 23.1403 20.4026Z" fill="#272F9B"/>
</g>
</svg>
