<svg width="28" height="28" viewBox="0 0 28 28" fill="none" xmlns="http://www.w3.org/2000/svg">
<mask id="mask0_107_317" style="mask-type:alpha" maskUnits="userSpaceOnUse" x="0" y="0" width="28" height="28">
<rect width="28" height="28" fill="#D9D9D9"/>
</mask>
<g mask="url(#mask0_107_317)">
<path d="M12.3086 21.2335L18.3461 14.0001H13.6794L14.5253 7.37931L9.12944 15.1668H13.1836L12.3086 21.2335ZM11.1734 16.9168H7.62415C7.23215 16.9168 6.94495 16.7433 6.76256 16.3962C6.57998 16.0493 6.60244 15.715 6.82994 15.3934L14.4736 4.3664C14.6308 4.14648 14.8312 3.99608 15.0751 3.91519C15.3187 3.83449 15.5722 3.8413 15.8354 3.93561C16.0987 4.02972 16.2913 4.19081 16.4132 4.4189C16.5351 4.64698 16.5804 4.89266 16.5489 5.15594L15.6718 12.2501H20.0244C20.4401 12.2501 20.7332 12.4364 20.9037 12.809C21.0743 13.1813 21.0242 13.5283 20.7535 13.8499L12.3019 23.9728C12.1329 24.1733 11.9265 24.3031 11.6827 24.3622C11.4389 24.4211 11.201 24.3975 10.9693 24.2913C10.7375 24.1851 10.5576 24.0229 10.4297 23.8045C10.3017 23.5862 10.2535 23.3453 10.285 23.0821L11.1734 16.9168Z" fill="#272F9B"/>
</g>
</svg>
