<svg width="28" height="28" viewBox="0 0 28 28" fill="none" xmlns="http://www.w3.org/2000/svg">
<mask id="mask0_107_341" style="mask-type:alpha" maskUnits="userSpaceOnUse" x="0" y="0" width="28" height="28">
<rect width="28" height="28" fill="#D9D9D9"/>
</mask>
<g mask="url(#mask0_107_341)">
<path d="M12.8786 17.32C12.5929 17.32 12.3495 17.2193 12.1482 17.0181C11.947 16.8168 11.8464 16.5734 11.8464 16.2878V11.7109C11.8464 11.4253 11.947 11.1818 12.1482 10.9806C12.3495 10.7793 12.5929 10.6787 12.8786 10.6787H16.2887C16.5744 10.6787 16.8178 10.7793 17.0191 10.9806C17.2203 11.1818 17.3209 11.4253 17.3209 11.7109V16.2878C17.3209 16.5734 17.2203 16.8168 17.0191 17.0181C16.8178 17.2193 16.5744 17.32 16.2887 17.32H12.8786ZM13.2376 15.9287H15.9297V12.07H13.2376V15.9287ZM20.013 20.1243V18.0153C20.013 17.7297 20.1136 17.4862 20.3149 17.285C20.5161 17.0839 20.7596 16.9834 21.0452 16.9834H23.513V15.57H20.6906C20.5021 15.57 20.3421 15.5041 20.2105 15.3725C20.0788 15.2409 20.013 15.0748 20.013 14.8743C20.013 14.6859 20.0788 14.5229 20.2105 14.3852C20.3421 14.2475 20.5082 14.1787 20.7086 14.1787H23.8721C24.1577 14.1787 24.4011 14.2793 24.6024 14.4806C24.8036 14.6818 24.9043 14.9253 24.9043 15.2109V16.9834C24.9043 17.269 24.8036 17.5125 24.6024 17.7137C24.4011 17.9148 24.1577 18.0153 23.8721 18.0153H21.4043V19.4287H24.2086C24.3971 19.4287 24.5601 19.4975 24.6978 19.6352C24.8354 19.7729 24.9043 19.9359 24.9043 20.1243C24.9043 20.3248 24.8354 20.4909 24.6978 20.6225C24.5601 20.7541 24.3971 20.82 24.2086 20.82H20.7086C20.5082 20.82 20.3421 20.7541 20.2105 20.6225C20.0788 20.4909 20.013 20.3248 20.013 20.1243ZM4.7119 17.32C4.42626 17.32 4.18281 17.2193 3.98156 17.0181C3.78031 16.8168 3.67969 16.5734 3.67969 16.2878V11.7109C3.67969 11.4253 3.78031 11.1818 3.98156 10.9806C4.18281 10.7793 4.42626 10.6787 4.7119 10.6787H8.12206C8.4077 10.6787 8.65115 10.7793 8.8524 10.9806C9.05365 11.1818 9.15427 11.4253 9.15427 11.7109V12.5028C9.15427 12.6838 9.08544 12.8402 8.94777 12.9718C8.8101 13.1034 8.64706 13.1693 8.45865 13.1693C8.25817 13.1693 8.09212 13.1034 7.96048 12.9718C7.82884 12.8402 7.76302 12.6741 7.76302 12.4736V12.07H5.07094V15.9287H7.76302V15.525C7.76302 15.3364 7.82884 15.1734 7.96048 15.0359C8.09212 14.8983 8.25817 14.8294 8.45865 14.8294C8.64706 14.8294 8.8101 14.8983 8.94777 15.0359C9.08544 15.1734 9.15427 15.3364 9.15427 15.525V16.2878C9.15427 16.5734 9.05365 16.8168 8.8524 17.0181C8.65115 17.2193 8.4077 17.32 8.12206 17.32H4.7119Z" fill="#272F9B"/>
</g>
</svg>
