<svg width="28" height="28" viewBox="0 0 28 28" fill="none" xmlns="http://www.w3.org/2000/svg">
<mask id="mask0_107_305" style="mask-type:alpha" maskUnits="userSpaceOnUse" x="0" y="0" width="28" height="28">
<rect width="28" height="28" fill="#D9D9D9"/>
</mask>
<g mask="url(#mask0_107_305)">
<path d="M13.998 25.0833C11.4999 25.0833 9.41743 24.2254 7.75046 22.5094C6.08349 20.7932 5.25 18.6573 5.25 16.1018C5.25 14.9699 5.50657 13.8343 6.01971 12.6948C6.53265 11.5556 7.17393 10.4622 7.94354 9.41472C8.71296 8.36725 9.54528 7.382 10.4405 6.45897C11.3357 5.53595 12.167 4.73289 12.9342 4.04981C13.0824 3.90922 13.2488 3.8049 13.4333 3.73685C13.6178 3.66879 13.8067 3.63477 14 3.63477C14.1933 3.63477 14.3822 3.66879 14.5667 3.73685C14.7512 3.8049 14.9176 3.90922 15.0657 4.04981C15.833 4.73289 16.6643 5.53595 17.5595 6.45897C18.4547 7.382 19.287 8.36725 20.0565 9.41472C20.8261 10.4622 21.4673 11.5556 21.9803 12.6948C22.4934 13.8343 22.75 14.9699 22.75 16.1018C22.75 18.6573 21.9158 20.7932 20.2475 22.5094C18.5792 24.2254 16.496 25.0833 13.998 25.0833ZM14 23.3333C16.0222 23.3333 17.6944 22.6479 19.0167 21.2771C20.3389 19.9063 21 18.1806 21 16.1C21 14.6806 20.4118 13.0764 19.2354 11.2875C18.059 9.49863 16.3139 7.54446 14 5.42502C11.6861 7.54446 9.94097 9.49863 8.76458 11.2875C7.58819 13.0764 7 14.6806 7 16.1C7 18.1806 7.66111 19.9063 8.98333 21.2771C10.3056 22.6479 11.9778 23.3333 14 23.3333ZM14.2873 21.9873C14.4907 21.9679 14.6582 21.8917 14.7898 21.7589C14.9215 21.6261 14.9873 21.466 14.9873 21.2786C14.9873 21.06 14.9155 20.8868 14.772 20.7588C14.6285 20.6309 14.4453 20.5766 14.2222 20.5961C13.425 20.6544 12.5567 20.4208 11.6174 19.8952C10.678 19.3694 10.0917 18.4551 9.85833 17.1523C9.81944 16.9534 9.73603 16.7971 9.60808 16.6833C9.48033 16.5696 9.32818 16.5127 9.15162 16.5127C8.93929 16.5127 8.76244 16.5924 8.62108 16.7519C8.47972 16.9111 8.43442 17.1156 8.48517 17.3653C8.80075 19.06 9.56365 20.2716 10.7739 21C11.9839 21.7284 13.155 22.0575 14.2873 21.9873Z" fill="#272F9B"/>
</g>
</svg>
